<svg width="198.18125px" height="122px" xmlns="http://www.w3.org/2000/svg" viewBox="150.909375 14 198.18125 122" style="background: rgba(0, 0, 0, 0);" preserveAspectRatio="xMidYMid"><defs><filter id="editing-offset"><feFlood flood-color="#f00" flood-opacity="0.5" result="c1"></feFlood><feFlood flood-color="#0f0" flood-opacity="0.5" result="c2"></feFlood><feFlood flood-color="#00f" flood-opacity="0.5" result="c3"></feFlood><feComposite operator="in" in="c1" in2="SourceAlpha" result="text-c1"></feComposite><feComposite operator="in" in="c2" in2="SourceAlpha" result="text-c2"></feComposite><feComposite operator="in" in="c3" in2="SourceAlpha" result="text-c3"></feComposite><feOffset in="text-c1" dx="-10" dy="0" result="text1"></feOffset><feOffset in="text-c2" dx="10" dy="0" result="text2"></feOffset><feOffset in="text-c3" dx="0" dy="0" result="text3"></feOffset><feMerge><feMergeNode in="text1"></feMergeNode><feMergeNode in="text2"></feMergeNode><feMergeNode in="text3"></feMergeNode></feMerge></filter></defs><g filter="url(#editing-offset)"><g transform="translate(185.36001521348953, 97.07999992370605)"><path d="M7.68 0L0.64 0L8.32-42.24L22.08-42.24L32.06-13.18L37.38-42.24L44.48-42.18L36.67 0L22.02 0L12.80-27.97L7.68 0ZM69.95-4.80L69.95-4.80L69.95-4.80Q69.95-9.28 71.74-18.24L71.74-18.24L62.27-18.24L58.75 0L45.38 0L53.50-42.24L67.01-42.24L63.30-23.36L72.77-23.36L76.29-42.24L89.79-42.24L89.79-42.24Q88.90-37.50 87.74-32.19L87.74-32.19L85.57-21.76L85.57-21.76Q83.14-9.60 83.14-4.29L83.14-4.29L83.14-4.29Q83.14-2.11 83.84-0.90L83.84-0.90L83.84-0.90Q80.64 1.28 76.90 1.28L76.90 1.28L76.90 1.28Q73.15 1.28 71.55-0.51L71.55-0.51L71.55-0.51Q69.95-2.30 69.95-4.80ZM90.69-0.32L90.69-0.32L98.75-42.24L98.75-42.24Q106.30-42.88 111.17-42.88L111.17-42.88L111.17-42.88Q116.03-42.88 119.17-42.46L119.17-42.46L119.17-42.46Q122.30-42.05 124.42-40.96L124.42-40.96L124.42-40.96Q128.64-38.91 128.64-33.28L128.64-33.28L128.64-33.28Q128.64-30.02 125.82-27.26L125.82-27.26L125.82-27.26Q123.20-24.77 120.32-24.19L120.32-24.19L120.32-24.19Q123.39-23.68 125.57-21.38L125.57-21.38L125.57-21.38Q127.87-18.94 127.87-15.17L127.87-15.17L127.87-15.17Q127.87-7.87 122.43-3.62L122.43-3.62L122.43-3.62Q116.99 0.64 106.30 0.64L106.30 0.64L106.30 0.64Q98.94 0.64 90.69-0.32ZM108.10-20.61L104.90-4.03L104.90-4.03Q105.47-3.97 105.60-3.97L105.60-3.97L106.18-3.97L106.18-3.97Q111.42-3.97 113.66-7.42L113.66-7.42L113.66-7.42Q115.33-10.11 115.33-15.04L115.33-15.04L115.33-15.04Q115.33-17.66 113.63-19.07L113.63-19.07L113.63-19.07Q111.94-20.48 108.10-20.61L108.10-20.61ZM117.82-33.22L117.82-33.22L117.82-33.22Q117.82-38.53 112.70-38.53L112.70-38.53L112.13-38.53L112.13-38.53Q111.87-38.53 111.49-38.46L111.49-38.46L108.93-24.96L109.57-24.96L109.57-24.96Q117.82-25.15 117.82-33.22Z"></path></g></g><style>text {
  font-size: 64px;
  font-family: Arial Black;
  dominant-baseline: central;
  text-anchor: middle;
}</style></svg>